<mxfile host="Electron" agent="Mozilla/5.0 (Windows NT 10.0; Win64; x64) AppleWebKit/537.36 (KHTML, like Gecko) draw.io/26.0.16 Chrome/132.0.6834.196 Electron/34.2.0 Safari/537.36" version="26.0.16">
  <diagram name="1 oldal" id="xw7v5drRhqMIVtwbWln7">
    <mxGraphModel dx="1036" dy="1784" grid="1" gridSize="10" guides="1" tooltips="1" connect="1" arrows="1" fold="1" page="1" pageScale="1" pageWidth="827" pageHeight="1169" math="0" shadow="0">
      <root>
        <mxCell id="0" />
        <mxCell id="1" parent="0" />
        <mxCell id="K2SjR7mvQ20MPOvlrCTG-1" value="Termék" style="swimlane;whiteSpace=wrap;html=1;" vertex="1" parent="1">
          <mxGeometry x="150" y="198" width="200" height="240" as="geometry" />
        </mxCell>
        <mxCell id="K2SjR7mvQ20MPOvlrCTG-100" value="gyártó ID" style="text;html=1;align=center;verticalAlign=middle;resizable=0;points=[];autosize=1;strokeColor=none;fillColor=none;" vertex="1" parent="K2SjR7mvQ20MPOvlrCTG-1">
          <mxGeometry x="65" y="68" width="70" height="30" as="geometry" />
        </mxCell>
        <mxCell id="K2SjR7mvQ20MPOvlrCTG-99" value="FK" style="text;html=1;align=center;verticalAlign=middle;resizable=0;points=[];autosize=1;strokeColor=none;fillColor=none;" vertex="1" parent="K2SjR7mvQ20MPOvlrCTG-1">
          <mxGeometry x="10" y="68" width="40" height="30" as="geometry" />
        </mxCell>
        <mxCell id="K2SjR7mvQ20MPOvlrCTG-101" value="N" style="text;html=1;align=center;verticalAlign=middle;resizable=0;points=[];autosize=1;strokeColor=none;fillColor=none;" vertex="1" parent="K2SjR7mvQ20MPOvlrCTG-1">
          <mxGeometry x="150" y="68" width="30" height="30" as="geometry" />
        </mxCell>
        <mxCell id="K2SjR7mvQ20MPOvlrCTG-106" value="N" style="text;html=1;align=center;verticalAlign=middle;resizable=0;points=[];autosize=1;strokeColor=none;fillColor=none;" vertex="1" parent="K2SjR7mvQ20MPOvlrCTG-1">
          <mxGeometry x="150" y="140" width="30" height="30" as="geometry" />
        </mxCell>
        <mxCell id="K2SjR7mvQ20MPOvlrCTG-105" value="C(30)" style="text;html=1;align=center;verticalAlign=middle;resizable=0;points=[];autosize=1;strokeColor=none;fillColor=none;" vertex="1" parent="K2SjR7mvQ20MPOvlrCTG-1">
          <mxGeometry x="140" y="110" width="50" height="30" as="geometry" />
        </mxCell>
        <mxCell id="K2SjR7mvQ20MPOvlrCTG-3" value="Gyártó" style="swimlane;whiteSpace=wrap;html=1;" vertex="1" parent="1">
          <mxGeometry x="150" y="-160" width="200" height="290" as="geometry" />
        </mxCell>
        <mxCell id="K2SjR7mvQ20MPOvlrCTG-121" value="név" style="text;html=1;align=center;verticalAlign=middle;resizable=0;points=[];autosize=1;strokeColor=none;fillColor=none;" vertex="1" parent="K2SjR7mvQ20MPOvlrCTG-3">
          <mxGeometry x="80" y="80" width="40" height="30" as="geometry" />
        </mxCell>
        <mxCell id="K2SjR7mvQ20MPOvlrCTG-128" value="város" style="text;html=1;align=center;verticalAlign=middle;resizable=0;points=[];autosize=1;strokeColor=none;fillColor=none;" vertex="1" parent="K2SjR7mvQ20MPOvlrCTG-3">
          <mxGeometry x="75" y="180" width="50" height="30" as="geometry" />
        </mxCell>
        <mxCell id="K2SjR7mvQ20MPOvlrCTG-124" value="telephely" style="text;html=1;align=center;verticalAlign=middle;resizable=0;points=[];autosize=1;strokeColor=none;fillColor=none;" vertex="1" parent="K2SjR7mvQ20MPOvlrCTG-3">
          <mxGeometry x="65" y="110" width="70" height="30" as="geometry" />
        </mxCell>
        <mxCell id="K2SjR7mvQ20MPOvlrCTG-125" value="ir.szám" style="text;html=1;align=center;verticalAlign=middle;resizable=0;points=[];autosize=1;strokeColor=none;fillColor=none;" vertex="1" parent="K2SjR7mvQ20MPOvlrCTG-3">
          <mxGeometry x="70" y="140" width="60" height="30" as="geometry" />
        </mxCell>
        <mxCell id="K2SjR7mvQ20MPOvlrCTG-135" value="C(25)" style="text;html=1;align=center;verticalAlign=middle;resizable=0;points=[];autosize=1;strokeColor=none;fillColor=none;" vertex="1" parent="K2SjR7mvQ20MPOvlrCTG-3">
          <mxGeometry x="140" y="210" width="50" height="30" as="geometry" />
        </mxCell>
        <mxCell id="K2SjR7mvQ20MPOvlrCTG-133" value="N" style="text;html=1;align=center;verticalAlign=middle;resizable=0;points=[];autosize=1;strokeColor=none;fillColor=none;" vertex="1" parent="K2SjR7mvQ20MPOvlrCTG-3">
          <mxGeometry x="150" y="140" width="30" height="30" as="geometry" />
        </mxCell>
        <mxCell id="K2SjR7mvQ20MPOvlrCTG-131" value="C(30)" style="text;html=1;align=center;verticalAlign=middle;resizable=0;points=[];autosize=1;strokeColor=none;fillColor=none;" vertex="1" parent="K2SjR7mvQ20MPOvlrCTG-3">
          <mxGeometry x="140" y="80" width="50" height="30" as="geometry" />
        </mxCell>
        <mxCell id="K2SjR7mvQ20MPOvlrCTG-5" value="Termék-rendelés" style="swimlane;whiteSpace=wrap;html=1;" vertex="1" parent="1">
          <mxGeometry x="530" y="360" width="200" height="120" as="geometry" />
        </mxCell>
        <mxCell id="K2SjR7mvQ20MPOvlrCTG-46" value="FK" style="text;html=1;align=center;verticalAlign=middle;resizable=0;points=[];autosize=1;strokeColor=none;fillColor=none;" vertex="1" parent="K2SjR7mvQ20MPOvlrCTG-5">
          <mxGeometry x="5" y="28" width="40" height="30" as="geometry" />
        </mxCell>
        <mxCell id="K2SjR7mvQ20MPOvlrCTG-47" value="&lt;u&gt;Tkód&lt;/u&gt;" style="text;html=1;align=center;verticalAlign=middle;resizable=0;points=[];autosize=1;strokeColor=none;fillColor=none;" vertex="1" parent="K2SjR7mvQ20MPOvlrCTG-5">
          <mxGeometry x="65" y="28" width="50" height="30" as="geometry" />
        </mxCell>
        <mxCell id="K2SjR7mvQ20MPOvlrCTG-48" value="&lt;u&gt;C(8)&lt;/u&gt;" style="text;html=1;align=center;verticalAlign=middle;resizable=0;points=[];autosize=1;strokeColor=none;fillColor=none;" vertex="1" parent="K2SjR7mvQ20MPOvlrCTG-5">
          <mxGeometry x="145" y="28" width="50" height="30" as="geometry" />
        </mxCell>
        <mxCell id="K2SjR7mvQ20MPOvlrCTG-55" value="" style="endArrow=none;html=1;rounded=0;exitX=0.96;exitY=-0.113;exitDx=0;exitDy=0;exitPerimeter=0;" edge="1" parent="K2SjR7mvQ20MPOvlrCTG-5" source="K2SjR7mvQ20MPOvlrCTG-46">
          <mxGeometry width="50" height="50" relative="1" as="geometry">
            <mxPoint x="310" y="30" as="sourcePoint" />
            <mxPoint x="43" y="120" as="targetPoint" />
          </mxGeometry>
        </mxCell>
        <mxCell id="K2SjR7mvQ20MPOvlrCTG-56" value="" style="endArrow=none;html=1;rounded=0;exitX=0.75;exitY=1;exitDx=0;exitDy=0;" edge="1" parent="K2SjR7mvQ20MPOvlrCTG-5" source="K2SjR7mvQ20MPOvlrCTG-5">
          <mxGeometry width="50" height="50" relative="1" as="geometry">
            <mxPoint x="310" y="30" as="sourcePoint" />
            <mxPoint x="150" y="20" as="targetPoint" />
          </mxGeometry>
        </mxCell>
        <mxCell id="K2SjR7mvQ20MPOvlrCTG-6" value="alkatrész" style="swimlane;whiteSpace=wrap;html=1;" vertex="1" parent="1">
          <mxGeometry x="840" y="200" width="200" height="120" as="geometry" />
        </mxCell>
        <mxCell id="K2SjR7mvQ20MPOvlrCTG-78" value="C(30)" style="text;html=1;align=center;verticalAlign=middle;resizable=0;points=[];autosize=1;strokeColor=none;fillColor=none;" vertex="1" parent="K2SjR7mvQ20MPOvlrCTG-6">
          <mxGeometry x="145" y="78" width="50" height="30" as="geometry" />
        </mxCell>
        <mxCell id="K2SjR7mvQ20MPOvlrCTG-75" value="&lt;u&gt;C(8)&lt;/u&gt;" style="text;html=1;align=center;verticalAlign=middle;resizable=0;points=[];autosize=1;strokeColor=none;fillColor=none;" vertex="1" parent="K2SjR7mvQ20MPOvlrCTG-6">
          <mxGeometry x="135" y="28" width="50" height="30" as="geometry" />
        </mxCell>
        <mxCell id="K2SjR7mvQ20MPOvlrCTG-7" value="Rendelés" style="swimlane;whiteSpace=wrap;html=1;" vertex="1" parent="1">
          <mxGeometry x="840" y="400" width="200" height="200" as="geometry" />
        </mxCell>
        <mxCell id="K2SjR7mvQ20MPOvlrCTG-29" value="&lt;u&gt;C(8)&lt;/u&gt;" style="text;html=1;align=center;verticalAlign=middle;resizable=0;points=[];autosize=1;strokeColor=none;fillColor=none;" vertex="1" parent="K2SjR7mvQ20MPOvlrCTG-7">
          <mxGeometry x="140" y="25" width="50" height="30" as="geometry" />
        </mxCell>
        <mxCell id="K2SjR7mvQ20MPOvlrCTG-32" value="" style="endArrow=none;html=1;rounded=0;entryX=0.168;entryY=0.047;entryDx=0;entryDy=0;entryPerimeter=0;exitX=0.75;exitY=1;exitDx=0;exitDy=0;" edge="1" parent="K2SjR7mvQ20MPOvlrCTG-7" source="K2SjR7mvQ20MPOvlrCTG-7" target="K2SjR7mvQ20MPOvlrCTG-29">
          <mxGeometry width="50" height="50" relative="1" as="geometry">
            <mxPoint x="150" y="190" as="sourcePoint" />
            <mxPoint x="330" y="-60" as="targetPoint" />
          </mxGeometry>
        </mxCell>
        <mxCell id="K2SjR7mvQ20MPOvlrCTG-35" value="ár" style="text;html=1;align=center;verticalAlign=middle;resizable=0;points=[];autosize=1;strokeColor=none;fillColor=none;" vertex="1" parent="K2SjR7mvQ20MPOvlrCTG-7">
          <mxGeometry x="85" y="85" width="30" height="30" as="geometry" />
        </mxCell>
        <mxCell id="K2SjR7mvQ20MPOvlrCTG-34" value="Vevő kód" style="text;html=1;align=center;verticalAlign=middle;resizable=0;points=[];autosize=1;strokeColor=none;fillColor=none;" vertex="1" parent="K2SjR7mvQ20MPOvlrCTG-7">
          <mxGeometry x="65" y="55" width="70" height="30" as="geometry" />
        </mxCell>
        <mxCell id="K2SjR7mvQ20MPOvlrCTG-36" value="darabszám" style="text;html=1;align=center;verticalAlign=middle;resizable=0;points=[];autosize=1;strokeColor=none;fillColor=none;" vertex="1" parent="K2SjR7mvQ20MPOvlrCTG-7">
          <mxGeometry x="60" y="115" width="80" height="30" as="geometry" />
        </mxCell>
        <mxCell id="K2SjR7mvQ20MPOvlrCTG-37" value="Dátum" style="text;html=1;align=center;verticalAlign=middle;resizable=0;points=[];autosize=1;strokeColor=none;fillColor=none;" vertex="1" parent="K2SjR7mvQ20MPOvlrCTG-7">
          <mxGeometry x="70" y="145" width="60" height="30" as="geometry" />
        </mxCell>
        <mxCell id="K2SjR7mvQ20MPOvlrCTG-28" value="&lt;u&gt;Rkód&lt;/u&gt;" style="text;html=1;align=center;verticalAlign=middle;resizable=0;points=[];autosize=1;strokeColor=none;fillColor=none;" vertex="1" parent="K2SjR7mvQ20MPOvlrCTG-7">
          <mxGeometry x="75" y="25" width="50" height="30" as="geometry" />
        </mxCell>
        <mxCell id="K2SjR7mvQ20MPOvlrCTG-27" value="PK" style="text;html=1;align=center;verticalAlign=middle;resizable=0;points=[];autosize=1;strokeColor=none;fillColor=none;" vertex="1" parent="K2SjR7mvQ20MPOvlrCTG-7">
          <mxGeometry x="5" y="25" width="40" height="30" as="geometry" />
        </mxCell>
        <mxCell id="K2SjR7mvQ20MPOvlrCTG-33" value="FK" style="text;html=1;align=center;verticalAlign=middle;resizable=0;points=[];autosize=1;strokeColor=none;fillColor=none;" vertex="1" parent="K2SjR7mvQ20MPOvlrCTG-7">
          <mxGeometry x="5" y="55" width="40" height="30" as="geometry" />
        </mxCell>
        <mxCell id="K2SjR7mvQ20MPOvlrCTG-41" value="D" style="text;html=1;align=center;verticalAlign=middle;resizable=0;points=[];autosize=1;strokeColor=none;fillColor=none;" vertex="1" parent="K2SjR7mvQ20MPOvlrCTG-7">
          <mxGeometry x="160" y="145" width="30" height="30" as="geometry" />
        </mxCell>
        <mxCell id="K2SjR7mvQ20MPOvlrCTG-40" value="N" style="text;html=1;align=center;verticalAlign=middle;resizable=0;points=[];autosize=1;strokeColor=none;fillColor=none;" vertex="1" parent="K2SjR7mvQ20MPOvlrCTG-7">
          <mxGeometry x="160" y="110" width="30" height="30" as="geometry" />
        </mxCell>
        <mxCell id="K2SjR7mvQ20MPOvlrCTG-39" value="N" style="text;html=1;align=center;verticalAlign=middle;resizable=0;points=[];autosize=1;strokeColor=none;fillColor=none;" vertex="1" parent="K2SjR7mvQ20MPOvlrCTG-7">
          <mxGeometry x="160" y="80" width="30" height="30" as="geometry" />
        </mxCell>
        <mxCell id="K2SjR7mvQ20MPOvlrCTG-38" value="C(8)" style="text;html=1;align=center;verticalAlign=middle;resizable=0;points=[];autosize=1;strokeColor=none;fillColor=none;" vertex="1" parent="K2SjR7mvQ20MPOvlrCTG-7">
          <mxGeometry x="150" y="55" width="50" height="30" as="geometry" />
        </mxCell>
        <mxCell id="K2SjR7mvQ20MPOvlrCTG-8" value="Vevő" style="swimlane;whiteSpace=wrap;html=1;" vertex="1" parent="1">
          <mxGeometry x="1190" y="390" width="200" height="200" as="geometry" />
        </mxCell>
        <mxCell id="K2SjR7mvQ20MPOvlrCTG-10" value="&lt;u&gt;Vkód&lt;/u&gt;" style="text;html=1;align=center;verticalAlign=middle;resizable=0;points=[];autosize=1;strokeColor=none;fillColor=none;" vertex="1" parent="K2SjR7mvQ20MPOvlrCTG-8">
          <mxGeometry x="75" y="28" width="50" height="30" as="geometry" />
        </mxCell>
        <mxCell id="K2SjR7mvQ20MPOvlrCTG-11" value="&lt;u&gt;C(8)&lt;/u&gt;" style="text;html=1;align=center;verticalAlign=middle;resizable=0;points=[];autosize=1;strokeColor=none;fillColor=none;" vertex="1" parent="K2SjR7mvQ20MPOvlrCTG-8">
          <mxGeometry x="150" y="28" width="50" height="30" as="geometry" />
        </mxCell>
        <mxCell id="K2SjR7mvQ20MPOvlrCTG-14" value="" style="endArrow=none;html=1;rounded=0;exitX=0.75;exitY=1;exitDx=0;exitDy=0;" edge="1" parent="K2SjR7mvQ20MPOvlrCTG-8" source="K2SjR7mvQ20MPOvlrCTG-8">
          <mxGeometry width="50" height="50" relative="1" as="geometry">
            <mxPoint x="-70" as="sourcePoint" />
            <mxPoint x="150" y="20" as="targetPoint" />
          </mxGeometry>
        </mxCell>
        <mxCell id="K2SjR7mvQ20MPOvlrCTG-15" value="ir.szám" style="text;html=1;align=center;verticalAlign=middle;resizable=0;points=[];autosize=1;strokeColor=none;fillColor=none;" vertex="1" parent="K2SjR7mvQ20MPOvlrCTG-8">
          <mxGeometry x="55" y="58" width="60" height="30" as="geometry" />
        </mxCell>
        <mxCell id="K2SjR7mvQ20MPOvlrCTG-20" value="név" style="text;html=1;align=center;verticalAlign=middle;resizable=0;points=[];autosize=1;strokeColor=none;fillColor=none;" vertex="1" parent="K2SjR7mvQ20MPOvlrCTG-8">
          <mxGeometry x="65" y="150" width="40" height="30" as="geometry" />
        </mxCell>
        <mxCell id="K2SjR7mvQ20MPOvlrCTG-17" value="utca" style="text;html=1;align=center;verticalAlign=middle;resizable=0;points=[];autosize=1;strokeColor=none;fillColor=none;" vertex="1" parent="K2SjR7mvQ20MPOvlrCTG-8">
          <mxGeometry x="60" y="120" width="50" height="30" as="geometry" />
        </mxCell>
        <mxCell id="K2SjR7mvQ20MPOvlrCTG-16" value="város" style="text;html=1;align=center;verticalAlign=middle;resizable=0;points=[];autosize=1;strokeColor=none;fillColor=none;" vertex="1" parent="K2SjR7mvQ20MPOvlrCTG-8">
          <mxGeometry x="60" y="88" width="50" height="30" as="geometry" />
        </mxCell>
        <mxCell id="K2SjR7mvQ20MPOvlrCTG-24" value="C(20)" style="text;html=1;align=center;verticalAlign=middle;resizable=0;points=[];autosize=1;strokeColor=none;fillColor=none;" vertex="1" parent="K2SjR7mvQ20MPOvlrCTG-8">
          <mxGeometry x="150" y="90" width="50" height="30" as="geometry" />
        </mxCell>
        <mxCell id="K2SjR7mvQ20MPOvlrCTG-25" value="C(25)" style="text;html=1;align=center;verticalAlign=middle;resizable=0;points=[];autosize=1;strokeColor=none;fillColor=none;" vertex="1" parent="K2SjR7mvQ20MPOvlrCTG-8">
          <mxGeometry x="150" y="120" width="50" height="30" as="geometry" />
        </mxCell>
        <mxCell id="K2SjR7mvQ20MPOvlrCTG-26" value="C(30)" style="text;html=1;align=center;verticalAlign=middle;resizable=0;points=[];autosize=1;strokeColor=none;fillColor=none;" vertex="1" parent="K2SjR7mvQ20MPOvlrCTG-8">
          <mxGeometry x="150" y="150" width="50" height="30" as="geometry" />
        </mxCell>
        <mxCell id="K2SjR7mvQ20MPOvlrCTG-21" value="N" style="text;html=1;align=center;verticalAlign=middle;resizable=0;points=[];autosize=1;strokeColor=none;fillColor=none;" vertex="1" parent="K2SjR7mvQ20MPOvlrCTG-8">
          <mxGeometry x="160" y="58" width="30" height="30" as="geometry" />
        </mxCell>
        <mxCell id="K2SjR7mvQ20MPOvlrCTG-9" value="PK" style="text;html=1;align=center;verticalAlign=middle;resizable=0;points=[];autosize=1;strokeColor=none;fillColor=none;" vertex="1" parent="1">
          <mxGeometry x="1190" y="418" width="40" height="30" as="geometry" />
        </mxCell>
        <mxCell id="K2SjR7mvQ20MPOvlrCTG-12" value="" style="endArrow=none;html=1;rounded=0;entryX=1;entryY=0.25;entryDx=0;entryDy=0;" edge="1" parent="1" target="K2SjR7mvQ20MPOvlrCTG-8">
          <mxGeometry width="50" height="50" relative="1" as="geometry">
            <mxPoint x="1190" y="440" as="sourcePoint" />
            <mxPoint x="1170" y="340" as="targetPoint" />
          </mxGeometry>
        </mxCell>
        <mxCell id="K2SjR7mvQ20MPOvlrCTG-13" value="" style="endArrow=none;html=1;rounded=0;" edge="1" parent="1">
          <mxGeometry width="50" height="50" relative="1" as="geometry">
            <mxPoint x="1230" y="590" as="sourcePoint" />
            <mxPoint x="1230" y="410" as="targetPoint" />
          </mxGeometry>
        </mxCell>
        <mxCell id="K2SjR7mvQ20MPOvlrCTG-30" value="" style="endArrow=none;html=1;rounded=0;exitX=0;exitY=0.25;exitDx=0;exitDy=0;entryX=1;entryY=0.25;entryDx=0;entryDy=0;" edge="1" parent="1" source="K2SjR7mvQ20MPOvlrCTG-7" target="K2SjR7mvQ20MPOvlrCTG-7">
          <mxGeometry width="50" height="50" relative="1" as="geometry">
            <mxPoint x="1120" y="390" as="sourcePoint" />
            <mxPoint x="1170" y="340" as="targetPoint" />
          </mxGeometry>
        </mxCell>
        <mxCell id="K2SjR7mvQ20MPOvlrCTG-31" value="" style="endArrow=none;html=1;rounded=0;exitX=0.25;exitY=1;exitDx=0;exitDy=0;" edge="1" parent="1" source="K2SjR7mvQ20MPOvlrCTG-7">
          <mxGeometry width="50" height="50" relative="1" as="geometry">
            <mxPoint x="1120" y="390" as="sourcePoint" />
            <mxPoint x="890" y="420" as="targetPoint" />
          </mxGeometry>
        </mxCell>
        <mxCell id="K2SjR7mvQ20MPOvlrCTG-42" value="" style="endArrow=classic;html=1;rounded=0;exitX=1.088;exitY=0.507;exitDx=0;exitDy=0;exitPerimeter=0;entryX=-0.08;entryY=0.487;entryDx=0;entryDy=0;entryPerimeter=0;" edge="1" parent="1" source="K2SjR7mvQ20MPOvlrCTG-38" target="K2SjR7mvQ20MPOvlrCTG-9">
          <mxGeometry width="50" height="50" relative="1" as="geometry">
            <mxPoint x="1120" y="390" as="sourcePoint" />
            <mxPoint x="1170" y="340" as="targetPoint" />
          </mxGeometry>
        </mxCell>
        <mxCell id="K2SjR7mvQ20MPOvlrCTG-43" value="" style="endArrow=classic;html=1;rounded=0;entryX=0.96;entryY=0.587;entryDx=0;entryDy=0;entryPerimeter=0;" edge="1" parent="1" target="K2SjR7mvQ20MPOvlrCTG-38">
          <mxGeometry width="50" height="50" relative="1" as="geometry">
            <mxPoint x="1160" y="440" as="sourcePoint" />
            <mxPoint x="1170" y="340" as="targetPoint" />
          </mxGeometry>
        </mxCell>
        <mxCell id="K2SjR7mvQ20MPOvlrCTG-45" value="" style="endArrow=classic;html=1;rounded=0;" edge="1" parent="1">
          <mxGeometry width="50" height="50" relative="1" as="geometry">
            <mxPoint x="1160" y="440" as="sourcePoint" />
            <mxPoint x="1050" y="470" as="targetPoint" />
          </mxGeometry>
        </mxCell>
        <mxCell id="K2SjR7mvQ20MPOvlrCTG-49" value="C(8)" style="text;html=1;align=center;verticalAlign=middle;resizable=0;points=[];autosize=1;strokeColor=none;fillColor=none;" vertex="1" parent="1">
          <mxGeometry x="675" y="438" width="50" height="30" as="geometry" />
        </mxCell>
        <mxCell id="K2SjR7mvQ20MPOvlrCTG-72" value="" style="edgeStyle=orthogonalEdgeStyle;rounded=0;orthogonalLoop=1;jettySize=auto;html=1;" edge="1" parent="1" source="K2SjR7mvQ20MPOvlrCTG-50" target="K2SjR7mvQ20MPOvlrCTG-47">
          <mxGeometry relative="1" as="geometry" />
        </mxCell>
        <mxCell id="K2SjR7mvQ20MPOvlrCTG-50" value="Rkód" style="text;html=1;align=center;verticalAlign=middle;resizable=0;points=[];autosize=1;strokeColor=none;fillColor=none;" vertex="1" parent="1">
          <mxGeometry x="595" y="438" width="50" height="30" as="geometry" />
        </mxCell>
        <mxCell id="K2SjR7mvQ20MPOvlrCTG-52" value="FK&lt;div&gt;&lt;br&gt;&lt;/div&gt;" style="text;html=1;align=center;verticalAlign=middle;resizable=0;points=[];autosize=1;strokeColor=none;fillColor=none;" vertex="1" parent="1">
          <mxGeometry x="530" y="433" width="40" height="40" as="geometry" />
        </mxCell>
        <mxCell id="K2SjR7mvQ20MPOvlrCTG-54" value="" style="endArrow=none;html=1;rounded=0;entryX=1;entryY=0.5;entryDx=0;entryDy=0;" edge="1" parent="1" target="K2SjR7mvQ20MPOvlrCTG-5">
          <mxGeometry width="50" height="50" relative="1" as="geometry">
            <mxPoint x="530" y="420" as="sourcePoint" />
            <mxPoint x="890" y="340" as="targetPoint" />
          </mxGeometry>
        </mxCell>
        <mxCell id="K2SjR7mvQ20MPOvlrCTG-57" value="Termék-alkatrész" style="swimlane;whiteSpace=wrap;html=1;" vertex="1" parent="1">
          <mxGeometry x="530" y="190" width="200" height="120" as="geometry" />
        </mxCell>
        <mxCell id="K2SjR7mvQ20MPOvlrCTG-58" value="FK" style="text;html=1;align=center;verticalAlign=middle;resizable=0;points=[];autosize=1;strokeColor=none;fillColor=none;" vertex="1" parent="K2SjR7mvQ20MPOvlrCTG-57">
          <mxGeometry x="5" y="28" width="40" height="30" as="geometry" />
        </mxCell>
        <mxCell id="K2SjR7mvQ20MPOvlrCTG-59" value="&lt;u&gt;Tkód&lt;/u&gt;" style="text;html=1;align=center;verticalAlign=middle;resizable=0;points=[];autosize=1;strokeColor=none;fillColor=none;" vertex="1" parent="K2SjR7mvQ20MPOvlrCTG-57">
          <mxGeometry x="65" y="28" width="50" height="30" as="geometry" />
        </mxCell>
        <mxCell id="K2SjR7mvQ20MPOvlrCTG-60" value="&lt;u&gt;C(8)&lt;/u&gt;" style="text;html=1;align=center;verticalAlign=middle;resizable=0;points=[];autosize=1;strokeColor=none;fillColor=none;" vertex="1" parent="K2SjR7mvQ20MPOvlrCTG-57">
          <mxGeometry x="145" y="28" width="50" height="30" as="geometry" />
        </mxCell>
        <mxCell id="K2SjR7mvQ20MPOvlrCTG-61" value="" style="endArrow=none;html=1;rounded=0;" edge="1" parent="K2SjR7mvQ20MPOvlrCTG-57" source="K2SjR7mvQ20MPOvlrCTG-57">
          <mxGeometry width="50" height="50" relative="1" as="geometry">
            <mxPoint x="310" y="30" as="sourcePoint" />
            <mxPoint x="48" y="120" as="targetPoint" />
          </mxGeometry>
        </mxCell>
        <mxCell id="K2SjR7mvQ20MPOvlrCTG-62" value="" style="endArrow=none;html=1;rounded=0;exitX=0.75;exitY=1;exitDx=0;exitDy=0;" edge="1" parent="K2SjR7mvQ20MPOvlrCTG-57" source="K2SjR7mvQ20MPOvlrCTG-57">
          <mxGeometry width="50" height="50" relative="1" as="geometry">
            <mxPoint x="310" y="30" as="sourcePoint" />
            <mxPoint x="150" y="20" as="targetPoint" />
          </mxGeometry>
        </mxCell>
        <mxCell id="K2SjR7mvQ20MPOvlrCTG-66" value="C(8)" style="text;html=1;align=center;verticalAlign=middle;resizable=0;points=[];autosize=1;strokeColor=none;fillColor=none;" vertex="1" parent="K2SjR7mvQ20MPOvlrCTG-57">
          <mxGeometry x="145" y="78" width="50" height="30" as="geometry" />
        </mxCell>
        <mxCell id="K2SjR7mvQ20MPOvlrCTG-63" value="" style="endArrow=none;html=1;rounded=0;exitX=0;exitY=0.5;exitDx=0;exitDy=0;entryX=1;entryY=0.5;entryDx=0;entryDy=0;" edge="1" parent="1" source="K2SjR7mvQ20MPOvlrCTG-57" target="K2SjR7mvQ20MPOvlrCTG-57">
          <mxGeometry width="50" height="50" relative="1" as="geometry">
            <mxPoint x="840" y="390" as="sourcePoint" />
            <mxPoint x="890" y="340" as="targetPoint" />
          </mxGeometry>
        </mxCell>
        <mxCell id="K2SjR7mvQ20MPOvlrCTG-64" value="FK&lt;div&gt;&lt;br&gt;&lt;/div&gt;" style="text;html=1;align=center;verticalAlign=middle;resizable=0;points=[];autosize=1;strokeColor=none;fillColor=none;" vertex="1" parent="1">
          <mxGeometry x="530" y="253" width="40" height="40" as="geometry" />
        </mxCell>
        <mxCell id="K2SjR7mvQ20MPOvlrCTG-65" value="Rkód" style="text;html=1;align=center;verticalAlign=middle;resizable=0;points=[];autosize=1;strokeColor=none;fillColor=none;" vertex="1" parent="1">
          <mxGeometry x="615" y="258" width="50" height="30" as="geometry" />
        </mxCell>
        <mxCell id="K2SjR7mvQ20MPOvlrCTG-67" value="" style="endArrow=classic;html=1;rounded=0;entryX=1;entryY=0.75;entryDx=0;entryDy=0;" edge="1" parent="1" target="K2SjR7mvQ20MPOvlrCTG-5">
          <mxGeometry width="50" height="50" relative="1" as="geometry">
            <mxPoint x="840" y="470" as="sourcePoint" />
            <mxPoint x="890" y="340" as="targetPoint" />
          </mxGeometry>
        </mxCell>
        <mxCell id="K2SjR7mvQ20MPOvlrCTG-68" value="" style="endArrow=classic;html=1;rounded=0;exitX=1;exitY=0.75;exitDx=0;exitDy=0;entryX=-0.035;entryY=0.507;entryDx=0;entryDy=0;entryPerimeter=0;" edge="1" parent="1" source="K2SjR7mvQ20MPOvlrCTG-5" target="K2SjR7mvQ20MPOvlrCTG-33">
          <mxGeometry width="50" height="50" relative="1" as="geometry">
            <mxPoint x="840" y="390" as="sourcePoint" />
            <mxPoint x="890" y="340" as="targetPoint" />
          </mxGeometry>
        </mxCell>
        <mxCell id="K2SjR7mvQ20MPOvlrCTG-69" value="" style="endArrow=classic;html=1;rounded=0;" edge="1" parent="1">
          <mxGeometry width="50" height="50" relative="1" as="geometry">
            <mxPoint x="840" y="470" as="sourcePoint" />
            <mxPoint x="740" y="450" as="targetPoint" />
          </mxGeometry>
        </mxCell>
        <mxCell id="K2SjR7mvQ20MPOvlrCTG-70" value="" style="edgeStyle=orthogonalEdgeStyle;rounded=0;orthogonalLoop=1;jettySize=auto;html=1;" edge="1" parent="1" source="K2SjR7mvQ20MPOvlrCTG-46" target="K2SjR7mvQ20MPOvlrCTG-52">
          <mxGeometry relative="1" as="geometry" />
        </mxCell>
        <mxCell id="K2SjR7mvQ20MPOvlrCTG-73" value="PK" style="text;html=1;align=center;verticalAlign=middle;resizable=0;points=[];autosize=1;strokeColor=none;fillColor=none;" vertex="1" parent="1">
          <mxGeometry x="850" y="228" width="40" height="30" as="geometry" />
        </mxCell>
        <mxCell id="K2SjR7mvQ20MPOvlrCTG-74" value="&lt;u&gt;Akód&lt;/u&gt;" style="text;html=1;align=center;verticalAlign=middle;resizable=0;points=[];autosize=1;strokeColor=none;fillColor=none;" vertex="1" parent="1">
          <mxGeometry x="915" y="228" width="50" height="30" as="geometry" />
        </mxCell>
        <mxCell id="K2SjR7mvQ20MPOvlrCTG-77" value="név" style="text;html=1;align=center;verticalAlign=middle;resizable=0;points=[];autosize=1;strokeColor=none;fillColor=none;" vertex="1" parent="1">
          <mxGeometry x="920" y="268" width="40" height="30" as="geometry" />
        </mxCell>
        <mxCell id="K2SjR7mvQ20MPOvlrCTG-79" value="" style="endArrow=none;html=1;rounded=0;entryX=1;entryY=0.5;entryDx=0;entryDy=0;exitX=0;exitY=0.5;exitDx=0;exitDy=0;" edge="1" parent="1" source="K2SjR7mvQ20MPOvlrCTG-6" target="K2SjR7mvQ20MPOvlrCTG-6">
          <mxGeometry width="50" height="50" relative="1" as="geometry">
            <mxPoint x="690" y="390" as="sourcePoint" />
            <mxPoint x="740" y="340" as="targetPoint" />
          </mxGeometry>
        </mxCell>
        <mxCell id="K2SjR7mvQ20MPOvlrCTG-80" value="" style="endArrow=none;html=1;rounded=0;" edge="1" parent="1">
          <mxGeometry width="50" height="50" relative="1" as="geometry">
            <mxPoint x="896" y="320" as="sourcePoint" />
            <mxPoint x="896" y="220" as="targetPoint" />
          </mxGeometry>
        </mxCell>
        <mxCell id="K2SjR7mvQ20MPOvlrCTG-81" value="" style="endArrow=none;html=1;rounded=0;entryX=0.108;entryY=-0.087;entryDx=0;entryDy=0;entryPerimeter=0;" edge="1" parent="1" target="K2SjR7mvQ20MPOvlrCTG-75">
          <mxGeometry width="50" height="50" relative="1" as="geometry">
            <mxPoint x="980" y="320" as="sourcePoint" />
            <mxPoint x="740" y="340" as="targetPoint" />
          </mxGeometry>
        </mxCell>
        <mxCell id="K2SjR7mvQ20MPOvlrCTG-82" value="" style="endArrow=none;html=1;rounded=0;exitX=0.25;exitY=1;exitDx=0;exitDy=0;" edge="1" parent="1" source="K2SjR7mvQ20MPOvlrCTG-57">
          <mxGeometry width="50" height="50" relative="1" as="geometry">
            <mxPoint x="690" y="390" as="sourcePoint" />
            <mxPoint x="580" y="220" as="targetPoint" />
          </mxGeometry>
        </mxCell>
        <mxCell id="K2SjR7mvQ20MPOvlrCTG-91" value="" style="endArrow=classic;html=1;rounded=0;exitX=1;exitY=0.75;exitDx=0;exitDy=0;" edge="1" parent="1" source="K2SjR7mvQ20MPOvlrCTG-57">
          <mxGeometry width="50" height="50" relative="1" as="geometry">
            <mxPoint x="730" y="260" as="sourcePoint" />
            <mxPoint x="840" y="240" as="targetPoint" />
            <Array as="points">
              <mxPoint x="800" y="280" />
            </Array>
          </mxGeometry>
        </mxCell>
        <mxCell id="K2SjR7mvQ20MPOvlrCTG-92" value="" style="endArrow=classic;html=1;rounded=0;entryX=1;entryY=0.75;entryDx=0;entryDy=0;" edge="1" parent="1" target="K2SjR7mvQ20MPOvlrCTG-57">
          <mxGeometry width="50" height="50" relative="1" as="geometry">
            <mxPoint x="800" y="280" as="sourcePoint" />
            <mxPoint x="740" y="340" as="targetPoint" />
          </mxGeometry>
        </mxCell>
        <mxCell id="K2SjR7mvQ20MPOvlrCTG-93" value="" style="endArrow=classic;html=1;rounded=0;" edge="1" parent="1">
          <mxGeometry width="50" height="50" relative="1" as="geometry">
            <mxPoint x="790" y="280" as="sourcePoint" />
            <mxPoint x="740" y="280" as="targetPoint" />
          </mxGeometry>
        </mxCell>
        <mxCell id="K2SjR7mvQ20MPOvlrCTG-94" value="PK" style="text;html=1;align=center;verticalAlign=middle;resizable=0;points=[];autosize=1;strokeColor=none;fillColor=none;" vertex="1" parent="1">
          <mxGeometry x="160" y="228" width="40" height="30" as="geometry" />
        </mxCell>
        <mxCell id="K2SjR7mvQ20MPOvlrCTG-95" value="&lt;u&gt;Tkód&lt;/u&gt;" style="text;html=1;align=center;verticalAlign=middle;resizable=0;points=[];autosize=1;strokeColor=none;fillColor=none;" vertex="1" parent="1">
          <mxGeometry x="225" y="228" width="50" height="30" as="geometry" />
        </mxCell>
        <mxCell id="K2SjR7mvQ20MPOvlrCTG-96" value="&lt;u&gt;C(8)&lt;/u&gt;" style="text;html=1;align=center;verticalAlign=middle;resizable=0;points=[];autosize=1;strokeColor=none;fillColor=none;" vertex="1" parent="1">
          <mxGeometry x="295" y="228" width="50" height="30" as="geometry" />
        </mxCell>
        <mxCell id="K2SjR7mvQ20MPOvlrCTG-102" value="név" style="text;html=1;align=center;verticalAlign=middle;resizable=0;points=[];autosize=1;strokeColor=none;fillColor=none;" vertex="1" parent="1">
          <mxGeometry x="230" y="308" width="40" height="30" as="geometry" />
        </mxCell>
        <mxCell id="K2SjR7mvQ20MPOvlrCTG-103" value="ear" style="text;html=1;align=center;verticalAlign=middle;resizable=0;points=[];autosize=1;strokeColor=none;fillColor=none;" vertex="1" parent="1">
          <mxGeometry x="230" y="338" width="40" height="30" as="geometry" />
        </mxCell>
        <mxCell id="K2SjR7mvQ20MPOvlrCTG-104" value="csom.egys" style="text;html=1;align=center;verticalAlign=middle;resizable=0;points=[];autosize=1;strokeColor=none;fillColor=none;" vertex="1" parent="1">
          <mxGeometry x="210" y="388" width="80" height="30" as="geometry" />
        </mxCell>
        <mxCell id="K2SjR7mvQ20MPOvlrCTG-107" value="N" style="text;html=1;align=center;verticalAlign=middle;resizable=0;points=[];autosize=1;strokeColor=none;fillColor=none;" vertex="1" parent="1">
          <mxGeometry x="295" y="388" width="30" height="30" as="geometry" />
        </mxCell>
        <mxCell id="K2SjR7mvQ20MPOvlrCTG-108" value="" style="endArrow=none;html=1;rounded=0;exitX=0;exitY=0.25;exitDx=0;exitDy=0;entryX=1;entryY=0.25;entryDx=0;entryDy=0;" edge="1" parent="1" source="K2SjR7mvQ20MPOvlrCTG-1" target="K2SjR7mvQ20MPOvlrCTG-1">
          <mxGeometry width="50" height="50" relative="1" as="geometry">
            <mxPoint x="140" y="270" as="sourcePoint" />
            <mxPoint x="650" y="340" as="targetPoint" />
          </mxGeometry>
        </mxCell>
        <mxCell id="K2SjR7mvQ20MPOvlrCTG-109" value="" style="endArrow=none;html=1;rounded=0;" edge="1" parent="1">
          <mxGeometry width="50" height="50" relative="1" as="geometry">
            <mxPoint x="290" y="440" as="sourcePoint" />
            <mxPoint x="290" y="220" as="targetPoint" />
          </mxGeometry>
        </mxCell>
        <mxCell id="K2SjR7mvQ20MPOvlrCTG-110" value="" style="endArrow=none;html=1;rounded=0;exitX=0.25;exitY=1;exitDx=0;exitDy=0;" edge="1" parent="1" source="K2SjR7mvQ20MPOvlrCTG-1">
          <mxGeometry width="50" height="50" relative="1" as="geometry">
            <mxPoint x="210" y="430" as="sourcePoint" />
            <mxPoint x="200" y="220" as="targetPoint" />
          </mxGeometry>
        </mxCell>
        <mxCell id="K2SjR7mvQ20MPOvlrCTG-111" value="" style="endArrow=classic;html=1;rounded=0;" edge="1" parent="1">
          <mxGeometry width="50" height="50" relative="1" as="geometry">
            <mxPoint x="530" y="230" as="sourcePoint" />
            <mxPoint x="350" y="230" as="targetPoint" />
          </mxGeometry>
        </mxCell>
        <mxCell id="K2SjR7mvQ20MPOvlrCTG-112" value="" style="endArrow=classic;html=1;rounded=0;" edge="1" parent="1">
          <mxGeometry width="50" height="50" relative="1" as="geometry">
            <mxPoint x="400" y="230" as="sourcePoint" />
            <mxPoint x="530" y="230" as="targetPoint" />
          </mxGeometry>
        </mxCell>
        <mxCell id="K2SjR7mvQ20MPOvlrCTG-113" value="" style="endArrow=classic;html=1;rounded=0;" edge="1" parent="1">
          <mxGeometry width="50" height="50" relative="1" as="geometry">
            <mxPoint x="400" y="230" as="sourcePoint" />
            <mxPoint x="520" y="230" as="targetPoint" />
          </mxGeometry>
        </mxCell>
        <mxCell id="K2SjR7mvQ20MPOvlrCTG-114" value="" style="endArrow=classic;html=1;rounded=0;" edge="1" parent="1">
          <mxGeometry width="50" height="50" relative="1" as="geometry">
            <mxPoint x="410" y="400" as="sourcePoint" />
            <mxPoint x="530" y="400" as="targetPoint" />
          </mxGeometry>
        </mxCell>
        <mxCell id="K2SjR7mvQ20MPOvlrCTG-115" value="" style="endArrow=classic;html=1;rounded=0;" edge="1" parent="1">
          <mxGeometry width="50" height="50" relative="1" as="geometry">
            <mxPoint x="420" y="400" as="sourcePoint" />
            <mxPoint x="520" y="400" as="targetPoint" />
          </mxGeometry>
        </mxCell>
        <mxCell id="K2SjR7mvQ20MPOvlrCTG-116" value="" style="endArrow=classic;html=1;rounded=0;" edge="1" parent="1">
          <mxGeometry width="50" height="50" relative="1" as="geometry">
            <mxPoint x="410" y="400" as="sourcePoint" />
            <mxPoint x="350" y="250" as="targetPoint" />
            <Array as="points">
              <mxPoint x="410" y="250" />
            </Array>
          </mxGeometry>
        </mxCell>
        <mxCell id="K2SjR7mvQ20MPOvlrCTG-118" value="PK" style="text;html=1;align=center;verticalAlign=middle;resizable=0;points=[];autosize=1;strokeColor=none;fillColor=none;" vertex="1" parent="1">
          <mxGeometry x="160" y="-132" width="40" height="30" as="geometry" />
        </mxCell>
        <mxCell id="K2SjR7mvQ20MPOvlrCTG-119" value="&lt;u&gt;adószám&lt;/u&gt;" style="text;html=1;align=center;verticalAlign=middle;resizable=0;points=[];autosize=1;strokeColor=none;fillColor=none;" vertex="1" parent="1">
          <mxGeometry x="215" y="-132" width="70" height="30" as="geometry" />
        </mxCell>
        <mxCell id="K2SjR7mvQ20MPOvlrCTG-120" value="&lt;u&gt;N&lt;/u&gt;" style="text;html=1;align=center;verticalAlign=middle;resizable=0;points=[];autosize=1;strokeColor=none;fillColor=none;" vertex="1" parent="1">
          <mxGeometry x="305" y="-132" width="30" height="30" as="geometry" />
        </mxCell>
        <mxCell id="K2SjR7mvQ20MPOvlrCTG-129" value="" style="endArrow=none;html=1;rounded=0;exitX=0;exitY=0.25;exitDx=0;exitDy=0;entryX=1;entryY=0.25;entryDx=0;entryDy=0;" edge="1" parent="1" source="K2SjR7mvQ20MPOvlrCTG-3" target="K2SjR7mvQ20MPOvlrCTG-3">
          <mxGeometry width="50" height="50" relative="1" as="geometry">
            <mxPoint x="600" y="90" as="sourcePoint" />
            <mxPoint x="650" y="40" as="targetPoint" />
          </mxGeometry>
        </mxCell>
        <mxCell id="K2SjR7mvQ20MPOvlrCTG-130" value="utca" style="text;html=1;align=center;verticalAlign=middle;resizable=0;points=[];autosize=1;strokeColor=none;fillColor=none;" vertex="1" parent="1">
          <mxGeometry x="225" y="48" width="50" height="30" as="geometry" />
        </mxCell>
        <mxCell id="K2SjR7mvQ20MPOvlrCTG-132" value="C(20)" style="text;html=1;align=center;verticalAlign=middle;resizable=0;points=[];autosize=1;strokeColor=none;fillColor=none;" vertex="1" parent="1">
          <mxGeometry x="290" y="-52" width="50" height="30" as="geometry" />
        </mxCell>
        <mxCell id="K2SjR7mvQ20MPOvlrCTG-134" value="C(20)" style="text;html=1;align=center;verticalAlign=middle;resizable=0;points=[];autosize=1;strokeColor=none;fillColor=none;" vertex="1" parent="1">
          <mxGeometry x="285" y="18" width="50" height="30" as="geometry" />
        </mxCell>
        <mxCell id="K2SjR7mvQ20MPOvlrCTG-136" value="" style="endArrow=none;html=1;rounded=0;" edge="1" parent="1">
          <mxGeometry width="50" height="50" relative="1" as="geometry">
            <mxPoint x="294" y="130" as="sourcePoint" />
            <mxPoint x="294" y="-135" as="targetPoint" />
          </mxGeometry>
        </mxCell>
        <mxCell id="K2SjR7mvQ20MPOvlrCTG-137" value="" style="endArrow=none;html=1;rounded=0;exitX=0.25;exitY=1;exitDx=0;exitDy=0;" edge="1" parent="1" source="K2SjR7mvQ20MPOvlrCTG-3">
          <mxGeometry width="50" height="50" relative="1" as="geometry">
            <mxPoint x="600" y="90" as="sourcePoint" />
            <mxPoint x="200" y="-134" as="targetPoint" />
          </mxGeometry>
        </mxCell>
        <mxCell id="K2SjR7mvQ20MPOvlrCTG-138" value="" style="endArrow=classic;html=1;rounded=0;" edge="1" parent="1">
          <mxGeometry width="50" height="50" relative="1" as="geometry">
            <mxPoint x="40" y="240" as="sourcePoint" />
            <mxPoint x="150" y="240" as="targetPoint" />
          </mxGeometry>
        </mxCell>
        <mxCell id="K2SjR7mvQ20MPOvlrCTG-139" value="" style="endArrow=classic;html=1;rounded=0;" edge="1" parent="1">
          <mxGeometry width="50" height="50" relative="1" as="geometry">
            <mxPoint x="50" y="240" as="sourcePoint" />
            <mxPoint x="140" y="240" as="targetPoint" />
          </mxGeometry>
        </mxCell>
        <mxCell id="K2SjR7mvQ20MPOvlrCTG-140" value="" style="endArrow=classic;html=1;rounded=0;" edge="1" parent="1">
          <mxGeometry width="50" height="50" relative="1" as="geometry">
            <mxPoint x="40" y="240" as="sourcePoint" />
            <mxPoint x="150" y="-102" as="targetPoint" />
            <Array as="points">
              <mxPoint x="40" y="-102" />
            </Array>
          </mxGeometry>
        </mxCell>
      </root>
    </mxGraphModel>
  </diagram>
</mxfile>
